<svg id="Logo_SIGA_BG_logo" data-name="Logo/SIGA/BG_logo" xmlns="http://www.w3.org/2000/svg" width="206.22" height="65" viewBox="0 0 206.22 65">
  <path id="Caminho_3223" data-name="Caminho 3223" d="M149.9,422.32a9.88,9.88,0,0,0-2.064-1.347,40.575,40.575,0,0,0-4.423-2.065,45.607,45.607,0,0,0-5.8-1.886,25.215,25.215,0,0,0-6.291-.808q-8.651,0-8.65,5.3a3.961,3.961,0,0,0,.934,2.694,8.178,8.178,0,0,0,2.752,1.93,26.794,26.794,0,0,0,4.571,1.571q2.751.719,6.39,1.616a89.5,89.5,0,0,1,9.044,2.738,24.9,24.9,0,0,1,6.832,3.681,15.115,15.115,0,0,1,4.325,5.342,17.154,17.154,0,0,1,1.524,7.542,16.859,16.859,0,0,1-8.061,15.128,25.956,25.956,0,0,1-8.356,3.322,45.457,45.457,0,0,1-9.732,1.032,59.36,59.36,0,0,1-7.864-.539A61.55,61.55,0,0,1,117.163,466a66.1,66.1,0,0,1-7.422-2.469,42.671,42.671,0,0,1-6.635-3.322l7.077-12.838a13.657,13.657,0,0,0,2.556,1.706,39.526,39.526,0,0,0,5.358,2.514,57.952,57.952,0,0,0,7.127,2.245,32.505,32.505,0,0,0,7.962.988q8.552,0,8.552-4.758a3.843,3.843,0,0,0-1.278-2.963,12.217,12.217,0,0,0-3.539-2.11,40.853,40.853,0,0,0-5.358-1.751q-3.1-.808-6.734-1.8a61.567,61.567,0,0,1-8.355-2.918,22.2,22.2,0,0,1-5.849-3.636,13.169,13.169,0,0,1-3.441-4.758,16.134,16.134,0,0,1-1.13-6.284,18.559,18.559,0,0,1,2.064-8.888,19.573,19.573,0,0,1,5.6-6.509,25.229,25.229,0,0,1,8.208-4,35.467,35.467,0,0,1,9.879-1.347,41.057,41.057,0,0,1,7.176.629,58.351,58.351,0,0,1,6.783,1.616,51.4,51.4,0,0,1,6.045,2.245q2.8,1.258,5.161,2.514Z" transform="translate(-103.106 -403.107)" fill="#444"/>
  <path id="Caminho_3224" data-name="Caminho 3224" d="M260.759,468.153V404.529H276.88v63.624Z" transform="translate(-201.493 -403.939)" fill="#444"/>
  <path id="Caminho_3225" data-name="Caminho 3225" d="M374.3,461.221a27.639,27.639,0,0,1-18.382,6.73,35.363,35.363,0,0,1-12.976-2.378,32.686,32.686,0,0,1-10.666-6.685,31.325,31.325,0,0,1-7.225-10.364A32.844,32.844,0,0,1,322.4,435.2a29.559,29.559,0,0,1,2.654-12.383,31.27,31.27,0,0,1,7.323-10.139,35,35,0,0,1,11.059-6.82,37.286,37.286,0,0,1,13.762-2.512,36.855,36.855,0,0,1,17.006,3.724,25.4,25.4,0,0,1,10.911,10.185l-11.993,8.255a16.348,16.348,0,0,0-6.832-6.685,20.324,20.324,0,0,0-9.683-2.378,17.654,17.654,0,0,0-7.323,1.481,16.591,16.591,0,0,0-5.652,4.127,18.852,18.852,0,0,0-3.637,6.147,21.8,21.8,0,0,0-1.278,7.538,20.63,20.63,0,0,0,1.377,7.627,18.277,18.277,0,0,0,3.833,6.057,17.413,17.413,0,0,0,5.849,3.993,19.087,19.087,0,0,0,7.52,1.436q9.437,0,17.006-7.986V444.89H360.733V434.212h26.935V467.5H374.3Z" transform="translate(-242.557 -403.246)" fill="#fff"/>
  <path id="Caminho_3226" data-name="Caminho 3226" d="M515.23,404.529h14.548l25.46,63.624H538.724L533.318,453.9H511.594l-5.309,14.248H489.771Zm15.433,39.25L522.5,421.287l-8.355,22.492Z" transform="translate(-349.019 -403.939)" fill="#444"/>
</svg>
