<svg id="Logo_SIGA_BG_black" data-name="Logo/SIGA/BG_black" xmlns="http://www.w3.org/2000/svg" width="206.22" height="65" viewBox="0 0 206.22 65">
  <path id="Caminho_3227" data-name="Caminho 3227" d="M763.79,191.417a9.052,9.052,0,0,0-1.885-1.347,35.628,35.628,0,0,0-4.04-2.065,39.15,39.15,0,0,0-5.3-1.885,21.135,21.135,0,0,0-5.746-.808q-7.9,0-7.9,5.3a4.2,4.2,0,0,0,.853,2.693,7.514,7.514,0,0,0,2.514,1.93,23.076,23.076,0,0,0,4.175,1.571q2.512.72,5.836,1.616a76.637,76.637,0,0,1,8.26,2.738,22.207,22.207,0,0,1,6.24,3.681,14.939,14.939,0,0,1,3.95,5.342,18.561,18.561,0,0,1,1.392,7.542,18.9,18.9,0,0,1-2.02,9.112,17.038,17.038,0,0,1-5.342,6.015,22.564,22.564,0,0,1-7.631,3.322,38.07,38.07,0,0,1-8.888,1.032,49.592,49.592,0,0,1-7.183-.538,51.847,51.847,0,0,1-7.182-1.571,56.73,56.73,0,0,1-6.778-2.469,37.691,37.691,0,0,1-6.06-3.322l6.464-12.838a12.509,12.509,0,0,0,2.334,1.706,34.755,34.755,0,0,0,4.893,2.514,49.7,49.7,0,0,0,6.509,2.245,27.261,27.261,0,0,0,7.272.988q7.811,0,7.811-4.758a4.017,4.017,0,0,0-1.167-2.963,11.009,11.009,0,0,0-3.232-2.11,35.187,35.187,0,0,0-4.893-1.751q-2.828-.808-6.15-1.8a53.037,53.037,0,0,1-7.631-2.918,20.09,20.09,0,0,1-5.342-3.636,13.183,13.183,0,0,1-3.142-4.758,17.493,17.493,0,0,1-1.032-6.284,20.013,20.013,0,0,1,1.885-8.888,19.2,19.2,0,0,1,5.118-6.509,22.284,22.284,0,0,1,7.5-4,29.79,29.79,0,0,1,9.023-1.347,34.336,34.336,0,0,1,6.554.629,49.517,49.517,0,0,1,6.2,1.616,44.456,44.456,0,0,1,5.521,2.245q2.558,1.258,4.713,2.514Z" transform="translate(-721.055 -172.204)" fill="#a80532"/>
  <path id="Caminho_3228" data-name="Caminho 3228" d="M878.708,237.37V173.626h14.724V237.37Z" transform="translate(-819.006 -173.088)" fill="#a80532"/>
  <path id="Caminho_3229" data-name="Caminho 3229" d="M987.748,230.348a23.976,23.976,0,0,1-16.789,6.734,29.813,29.813,0,0,1-21.592-9.068,31.536,31.536,0,0,1-6.6-10.369,35.589,35.589,0,0,1-2.424-13.332,31.982,31.982,0,0,1,2.424-12.389,32.494,32.494,0,0,1,44.89-15.756,24.219,24.219,0,0,1,9.965,10.19l-10.953,8.26a15.68,15.68,0,0,0-6.24-6.688,17.282,17.282,0,0,0-8.843-2.379,14.926,14.926,0,0,0-6.688,1.481,15.312,15.312,0,0,0-5.162,4.13,19.306,19.306,0,0,0-3.322,6.15,23.691,23.691,0,0,0-1.167,7.542,22.408,22.408,0,0,0,1.257,7.631,18.61,18.61,0,0,0,3.5,6.06,15.933,15.933,0,0,0,5.342,3.995,16.115,16.115,0,0,0,6.868,1.437q8.619,0,15.532-7.99v-1.975h-12.39V203.325h24.6v33.308h-12.21Z" transform="translate(-857.301 -172.351)" fill="#fff"/>
  <path id="Caminho_3230" data-name="Caminho 3230" d="M1130.973,173.626h13.287l23.253,63.743H1152.43l-4.938-14.275h-19.841L1122.8,237.37H1107.72Zm14.1,39.323-7.452-22.535-7.631,22.535Z" transform="translate(-961.293 -173.088)" fill="#a80532"/>
</svg>
