<svg id="Navbar_Default" data-name="Navbar/Default" xmlns="http://www.w3.org/2000/svg" width="803" height="58" viewBox="0 0 803 58">
  <g id="Grupo_1318" data-name="Grupo 1318" transform="translate(16 1)">
    <rect id="base" width="803" height="58" rx="4" transform="translate(-16 -1)" fill="#f8f9fa"/>
    <g id="Grupo_1317" data-name="Grupo 1317">
      <g id="Menu" transform="translate(-78 -371)">
        <g id="Navbar_Menu" data-name="Navbar/Menu" transform="translate(450 380)">
          <rect id="transparent" width="76" height="38" rx="4" fill="none"/>
          <text id="Disabled" transform="translate(38 24)" fill="#7f7f7f" font-size="16" font-family="HelveticaNeue, Helvetica Neue"><tspan x="-31.264" y="0">Disabled</tspan></text>
        </g>
        <g id="Navbar_Dropdown" data-name="Navbar/Dropdown" transform="translate(337 380)">
          <rect id="transparent-2" data-name="transparent" width="113" height="38" rx="4" fill="none"/>
          <text id="Label" transform="translate(47 25)" fill="#444" font-size="16" font-family="HelveticaNeue, Helvetica Neue"><tspan x="-37.336" y="0">Dropdown</tspan></text>
          <g id="icon_dropdown_arrow_default" data-name="icon/dropdown arrow/default" transform="translate(90 12)">
            <rect id="Dropdown_Button_Ω_Carot_Down_background" data-name="Dropdown/Button/Ω/Carot/Down background" width="14" height="14" fill="none"/>
            <path id="icon_dropdown_arrow" data-name="icon/dropdown arrow" d="M.023-6h12L6,0Z" transform="translate(0.977 10)" fill="#444"/>
          </g>
        </g>
        <g id="Navbar_Menu-2" data-name="Navbar/Menu" transform="translate(261 380)">
          <rect id="transparent-3" data-name="transparent" width="76" height="38" rx="4" fill="none"/>
          <text id="Link" transform="translate(38 24)" fill="#444" font-size="16" font-family="HelveticaNeue, Helvetica Neue"><tspan x="-14.824" y="0">Link</tspan></text>
        </g>
        <g id="Navbar_Menu-3" data-name="Navbar/Menu" transform="translate(185 380)">
          <rect id="transparent-4" data-name="transparent" width="76" height="38" rx="4" fill="none"/>
          <text id="Home" transform="translate(38 24)" fill="#202529" font-size="16" font-family="HelveticaNeue, Helvetica Neue"><tspan x="-21.488" y="0">Home</tspan></text>
        </g>
      </g>
      <g id="Search" transform="translate(-78 -371)">
        <g id="Button_Default_Success" data-name="Button/Default/Success" transform="translate(753 380)">
          <g id="Success_28A745" data-name="Success / #28A745" fill="none" stroke="#28a745" stroke-width="1">
            <rect width="82" height="38" rx="5" stroke="none"/>
            <rect x="0.5" y="0.5" width="81" height="37" rx="4.5" fill="none"/>
          </g>
          <text id="Search-2" data-name="Search" transform="translate(16 24)" fill="#28a745" font-size="16" font-family="HelveticaNeue, Helvetica Neue"><tspan x="0" y="0">Search</tspan></text>
        </g>
        <g id="InputGroup_Base_Text_Middle_Medium" data-name="InputGroup/Base/Text/Middle/Medium" transform="translate(574 380)">
          <g id="InputGroup_Middle_Placeholder" data-name="InputGroup/Middle/Placeholder">
            <g id="InputGroup_Middle_Placeholder-2" data-name="InputGroup/Middle/Placeholder" fill="#fff" stroke="#ced4da" stroke-width="1">
              <rect width="171" height="38" rx="4" stroke="none"/>
              <rect x="0.5" y="0.5" width="170" height="37" rx="3.5" fill="none"/>
            </g>
          </g>
          <text id="Search-3" data-name="Search" transform="translate(14 25)" fill="#868e96" font-size="16" font-family="HelveticaNeue, Helvetica Neue"><tspan x="0" y="0">Search</tspan></text>
        </g>
      </g>
      <g id="Logo_SIGA_Default" data-name="Logo/SIGA/Default" transform="translate(14 15)">
        <path id="Caminho_3231" data-name="Caminho 3231" d="M123.672,183.894a3.608,3.608,0,0,0-.754-.539,14.247,14.247,0,0,0-1.616-.826,15.66,15.66,0,0,0-2.119-.754,8.46,8.46,0,0,0-2.3-.323q-3.161,0-3.16,2.119a1.679,1.679,0,0,0,.341,1.077,3.006,3.006,0,0,0,1.006.772,9.245,9.245,0,0,0,1.67.628q1,.288,2.334.646a30.622,30.622,0,0,1,3.3,1.1,8.879,8.879,0,0,1,2.5,1.472,5.972,5.972,0,0,1,1.58,2.137,7.421,7.421,0,0,1,.557,3.016,7.559,7.559,0,0,1-.808,3.645,6.814,6.814,0,0,1-2.137,2.406,9.021,9.021,0,0,1-3.053,1.329,15.227,15.227,0,0,1-3.555.413,19.838,19.838,0,0,1-2.873-.216,20.739,20.739,0,0,1-2.873-.628,22.713,22.713,0,0,1-2.711-.987,15.114,15.114,0,0,1-2.424-1.329l2.586-5.135a4.993,4.993,0,0,0,.934.682,13.885,13.885,0,0,0,1.957,1.006,19.879,19.879,0,0,0,2.6.9,10.911,10.911,0,0,0,2.909.4q3.124,0,3.124-1.9a1.608,1.608,0,0,0-.467-1.185,4.409,4.409,0,0,0-1.293-.844,14.037,14.037,0,0,0-1.957-.7q-1.131-.323-2.46-.718a21.239,21.239,0,0,1-3.052-1.167,8.036,8.036,0,0,1-2.137-1.454,5.275,5.275,0,0,1-1.257-1.9,7,7,0,0,1-.413-2.514,8.006,8.006,0,0,1,.754-3.555,7.681,7.681,0,0,1,2.047-2.6,8.911,8.911,0,0,1,3-1.6,11.91,11.91,0,0,1,3.609-.539,13.735,13.735,0,0,1,2.621.251,19.837,19.837,0,0,1,2.478.646,17.806,17.806,0,0,1,2.209.9q1.023.5,1.885,1.006Z" transform="translate(-106.578 -176.209)" fill="#444"/>
        <path id="Caminho_3232" data-name="Caminho 3232" d="M264.231,203.129v-25.5h5.889v25.5Z" transform="translate(-240.35 -177.416)" fill="#444"/>
        <path id="Caminho_3233" data-name="Caminho 3233" d="M344.829,199.61a9.591,9.591,0,0,1-6.716,2.693,11.927,11.927,0,0,1-8.637-3.627,12.614,12.614,0,0,1-2.639-4.148,14.232,14.232,0,0,1-.97-5.333,12.79,12.79,0,0,1,.97-4.956,13,13,0,0,1,17.956-6.3,9.688,9.688,0,0,1,3.986,4.076l-4.381,3.3a6.272,6.272,0,0,0-2.5-2.675,6.912,6.912,0,0,0-3.537-.952,5.97,5.97,0,0,0-2.675.593,6.123,6.123,0,0,0-2.065,1.652,7.724,7.724,0,0,0-1.329,2.46,9.48,9.48,0,0,0-.467,3.016,8.96,8.96,0,0,0,.5,3.053,7.439,7.439,0,0,0,1.4,2.424,6.375,6.375,0,0,0,2.137,1.6,6.448,6.448,0,0,0,2.747.575,8.1,8.1,0,0,0,6.213-3.2v-.79h-4.956V188.8h9.84v13.323h-4.884Z" transform="translate(-292.651 -176.411)" fill="#a80532"/>
        <path id="Caminho_3234" data-name="Caminho 3234" d="M502.544,177.632h5.315l9.3,25.5h-6.033l-1.975-5.71h-7.936l-1.939,5.71h-6.033Zm5.638,15.729-2.981-9.014-3.052,9.014Z" transform="translate(-434.672 -177.416)" fill="#444"/>
      </g>
    </g>
  </g>
</svg>
