<svg id="Logo_SIGA_Default" data-name="Logo/SIGA/Default" xmlns="http://www.w3.org/2000/svg" width="206.219" height="65" viewBox="0 0 206.219 65">
  <path id="Caminho_3231" data-name="Caminho 3231" d="M149.313,195.422a9.02,9.02,0,0,0-1.885-1.347,35.62,35.62,0,0,0-4.04-2.065,39.147,39.147,0,0,0-5.3-1.885,21.149,21.149,0,0,0-5.746-.808q-7.9,0-7.9,5.3a4.2,4.2,0,0,0,.853,2.693,7.515,7.515,0,0,0,2.514,1.931,23.11,23.11,0,0,0,4.175,1.571q2.512.72,5.836,1.616a76.557,76.557,0,0,1,8.26,2.738,22.2,22.2,0,0,1,6.24,3.681,14.93,14.93,0,0,1,3.95,5.342,18.553,18.553,0,0,1,1.392,7.541,18.9,18.9,0,0,1-2.02,9.112,17.035,17.035,0,0,1-5.342,6.015,22.552,22.552,0,0,1-7.631,3.322,38.068,38.068,0,0,1-8.888,1.033,49.6,49.6,0,0,1-7.183-.539,51.846,51.846,0,0,1-7.182-1.571,56.788,56.788,0,0,1-6.778-2.469,37.784,37.784,0,0,1-6.06-3.322l6.464-12.838a12.483,12.483,0,0,0,2.334,1.706,34.714,34.714,0,0,0,4.893,2.514,49.7,49.7,0,0,0,6.509,2.245,27.276,27.276,0,0,0,7.272.988q7.811,0,7.811-4.759a4.02,4.02,0,0,0-1.167-2.962,11.022,11.022,0,0,0-3.232-2.11,35.092,35.092,0,0,0-4.893-1.751q-2.828-.808-6.15-1.8a53.1,53.1,0,0,1-7.631-2.918,20.09,20.09,0,0,1-5.342-3.636,13.188,13.188,0,0,1-3.142-4.758,17.5,17.5,0,0,1-1.032-6.284,20.016,20.016,0,0,1,1.885-8.888,19.2,19.2,0,0,1,5.118-6.509,22.279,22.279,0,0,1,7.5-3.995,29.774,29.774,0,0,1,9.023-1.347,34.335,34.335,0,0,1,6.554.629,49.586,49.586,0,0,1,6.2,1.616,44.519,44.519,0,0,1,5.521,2.245q2.558,1.258,4.713,2.514Z" transform="translate(-106.578 -176.209)" fill="#444"/>
  <path id="Caminho_3232" data-name="Caminho 3232" d="M264.231,241.375V177.632h14.723v63.743Z" transform="translate(-204.529 -177.093)" fill="#444"/>
  <path id="Caminho_3233" data-name="Caminho 3233" d="M373.271,234.354a23.977,23.977,0,0,1-16.789,6.733,29.818,29.818,0,0,1-21.591-9.068,31.535,31.535,0,0,1-6.6-10.37,35.58,35.58,0,0,1-2.424-13.332,31.976,31.976,0,0,1,2.424-12.389,32.495,32.495,0,0,1,44.889-15.756,24.221,24.221,0,0,1,9.965,10.19l-10.953,8.26a15.682,15.682,0,0,0-6.24-6.688,17.281,17.281,0,0,0-8.843-2.379,14.925,14.925,0,0,0-6.688,1.481,15.309,15.309,0,0,0-5.162,4.13,19.31,19.31,0,0,0-3.322,6.15,23.7,23.7,0,0,0-1.167,7.541,22.4,22.4,0,0,0,1.257,7.631,18.6,18.6,0,0,0,3.5,6.06,15.937,15.937,0,0,0,5.342,4,16.119,16.119,0,0,0,6.868,1.436q8.619,0,15.532-7.99v-1.975h-12.39V207.331h24.6v33.308h-12.21Z" transform="translate(-242.825 -176.356)" fill="#a80532"/>
  <path id="Caminho_3234" data-name="Caminho 3234" d="M516.5,177.632h13.287l23.253,63.743H537.952L533.015,227.1H513.174l-4.848,14.275H493.243Zm14.1,39.323-7.451-22.534-7.631,22.534Z" transform="translate(-346.817 -177.093)" fill="#444"/>
</svg>
